# xmcd
#
# Track frame offsets:
#	150
#	20875
#	36487
#	56550
#	76887
#	96512
#	114287
#	136250
#	158137
#	177912
#	192000
#	211225
#	232525
#	254262
#
# Disc length: 3626 seconds
#
# Revision: 1
# Processed by: cddbd v1.5.2PL0 Copyright (c) Steve Scherf et al.
# Submitted via: audiograbber 1.83.01
#
DISCID=b30e280e
DTITLE=Whitney Houston - Greatest Hits
DYEAR=1997
DGENRE=
TTITLE0=Why does it hurt so bad?
TTITLE1=Exhale
TTITLE2=Count on me
TTITLE3=I will always love you
TTITLE4=We don't know
TTITLE5=Saving all my love for you
TTITLE6=Greatest love of all
TTITLE7=I'm every woman
TTITLE8=Run to you
TTITLE9=Queen of the night
TTITLE10=How will I know
TTITLE11=One moment in time
TTITLE12=I have nothing
TTITLE13=All the man that I need
EXTD=
EXTT0=
EXTT1=
EXTT2=
EXTT3=
EXTT4=
EXTT5=
EXTT6=
EXTT7=
EXTT8=
EXTT9=
EXTT10=
EXTT11=
EXTT12=
EXTT13=
PLAYORDER=
